# xmcd
#
# Track frame offsets:
#	150
#	38987
#	52650
#	92775
#	116312
#	128677
#	170020
#	212580
#	241135
#	257352
#	274635
#	305207
#
# Disc length: 4441
#
# Revision: 1
# Processed by: cddbd v1.5.1PL0 Copyright (c) Steve Scherf et al.
# Submitted via: CDex 1.51
# Normalized: r0:DSETVAR1
#
DISCID=9a11570c
DTITLE=Various Artist - Mo'
DYEAR=1997
DGENRE=Other
TTITLE0=Idol Taxi - Mo' Butter
TTITLE1=Jiri Vyshohlid (Vidlicka) - Ruzena
TTITLE2=Kuma Kuma - Pumpkin Melody
TTITLE3=Arche Type - Ananas Rap
TTITLE4=Adamski - Health
TTITLE5=Hommanda - Flower Jet
TTITLE6=Yuko Nexus 6 - Ummm......
TTITLE7=Sketch Men - Limbo
TTITLE8=Masaaki Kikuchi - Love Hospital (Arche Type mix)
TTITLE9=Mr. Moo - Savon
TTITLE10=Wynands - Hericodace
TTITLE11=Tagomaga - Soul Inside
EXTD=YEAR: 1997
EXTT0=
EXTT1=
EXTT2=
EXTT3=
EXTT4=
EXTT5=
EXTT6=
EXTT7=
EXTT8=
EXTT9=
EXTT10=
EXTT11=
PLAYORDER=
